# WaveFront *.obj file (generated by CINEMA 4D)

mtllib ./axis.mtl

v -0.5 0.5 0.5
v -10 0.5 0.5
v -0.5 0.5 -0.5
v -10 0.5 -0.5
v -0.5 -0.5 -0.5
v -10 -0.5 -0.5
v -0.5 -0.5 0.5
v -10 -0.5 0.5
# 8 vertices

vn 0 1 0
vn 0 0 -1
vn 0 -1 0
vn 0 0 1
vn -1 0 0
vn 1 0 0
# 6 normals

vt 0 0 0
vt 0 1 0
vt 0.21963636577129 1.0012081861496 0
vt 0.21963636577129 0.0012081861496 0
# 4 texture coordinates

o x
usemtl Mat
f 3/4/1 4/3/1 2/2/1 1/1/1
f 5/4/2 6/3/2 4/2/2 3/1/2
f 7/4/3 8/3/3 6/2/3 5/1/3
f 1/4/4 2/3/4 8/2/4 7/1/4
f 4/4/5 6/3/5 8/2/5 2/1/5
f 5/4/6 3/3/6 1/2/6 7/1/6

v 0.5 0.5 -0.5
v 0.5 10 -0.5
v -0.5 10 -0.5
v -0.5 10 0.5
v 0.5 0.5 0.5
v 0.5 10 0.5
# 6 vertices

# 0 normal

vt 0.26155722141266 -0.00084209442139 0
vt 0.26155722141266 0.99915790557861 0
vt 0.47611677646637 0.99890160560608 0
vt 0.47611677646637 -0.00109839439392 0
# 4 texture coordinates

o y
usemtl Mat
f 3/8/2 11/7/2 10/6/2 9/5/2
f 1/8/5 12/7/5 11/6/5 3/5/5
f 13/8/4 14/7/4 12/6/4 1/5/4
f 9/8/6 10/7/6 14/6/6 13/5/6
f 11/8/1 12/7/1 14/6/1 10/5/1
f 1/8/3 3/7/3 9/6/3 13/5/3

v 0.5 0.5 10
v -0.5 0.5 10
v -0.5 -0.5 10
v 0.5 -0.5 0.5
v 0.5 -0.5 10
# 5 vertices

# 0 normal

vt 0.50813394784927 -0.00137901306152 0
vt 0.50813394784927 0.99862092733383 0
vt 0.73085796833038 0.99325114488602 0
vt 0.73085796833038 -0.00674867630005 0
# 4 texture coordinates

o z
usemtl Mat
f 1/12/1 16/11/1 15/10/1 13/9/1
f 7/12/5 17/11/5 16/10/5 1/9/5
f 18/12/3 19/11/3 17/10/3 7/9/3
f 13/12/6 15/11/6 19/10/6 18/9/6
f 16/12/4 17/11/4 19/10/4 15/9/4
f 7/12/2 1/11/2 13/10/2 18/9/2

